<svg aria-hidden="true" style="position: absolute; width: 0; height: 0; overflow: hidden;" version="1.1" xmlns="http://www.w3.org/2000/svg" xmlns:xlink="http://www.w3.org/1999/xlink">
<defs>
<symbol id="icon-burger" viewBox="0 0 32 32">
<path stroke-width="1.6" stroke-miterlimit="4" stroke-linecap="round" stroke-linejoin="round" d="M28 13.333h-24M28 8h-24M28 18.667h-24M28 24h-24"></path>
</symbol>
<symbol id="icon-chevron-down" viewBox="0 0 32 32">
<path fill="none" stroke-width="2.6667" stroke-miterlimit="4" stroke-linecap="round" stroke-linejoin="round"  d="M8 12l8 8 8-8"></path>
</symbol>
<symbol id="icon-cocktail" viewBox="0 0 32 32">
<path d="M28.356 2.986c-0.062-0.039-0.121-0.068-0.183-0.099-0.693-0.374-1.516-0.594-2.391-0.594-0.005 0-0.010 0-0.016 0h-0.008c-0.916 0.001-1.817 0.243-2.612 0.703-0.801 0.469-1.45 1.116-1.907 1.891l-0.013 0.025-0.013 0.025c-0.358 0.611-0.597 1.333-0.664 2.104l-0.001 0.019-0.001 0.020h-10.972l-1.227-2.977c-0.282-0.679-0.781-1.22-1.409-1.55l-0.017-0.008c-0.404-0.213-0.882-0.338-1.39-0.338-0.248 0-0.489 0.030-0.72 0.086l0.021-0.004 0.021-0.004-3.71 0.847 0.23 1.018 3.71-0.847c0.461-0.106 0.945-0.044 1.366 0.172 0.422 0.218 0.753 0.578 0.936 1.017l0.004 0.013 1.065 2.575h-6.967l11.649 11.715v8.578c-2.705 0.193-4.57 1.095-4.57 2.212v0.209h11.226v-0.209c0-1.117-1.869-2.023-4.572-2.212v-8.578l7.181-7.222c0.225 0.192 0.477 0.371 0.742 0.527l0.025 0.013c0.742 0.432 1.634 0.687 2.585 0.687 0.488 0 0.961-0.067 1.409-0.193l-0.037 0.009c1.36-0.381 2.47-1.261 3.145-2.425l0.013-0.025c0.439-0.754 0.698-1.66 0.698-2.626 0-0.48-0.064-0.945-0.184-1.387l0.009 0.037c-0.368-1.367-1.237-2.487-2.393-3.177l-0.024-0.013-0.026-0.014-0.008-0.002zM29.498 7.017l-2.85 0.009 1.418-2.483c0.756 0.591 1.279 1.45 1.426 2.432l0.003 0.021 0.002 0.022zM27.169 4.019l-1.418 2.489-1.434-2.475c0.459-0.19 0.949-0.287 1.446-0.285 0.506 0 0.99 0.099 1.432 0.279l-0.025-0.009zM22.471 5.661c0.249-0.436 0.567-0.802 0.942-1.098l0.009-0.006 1.433 2.475-2.844 0.008c0.064-0.516 0.226-0.982 0.468-1.398l-0.009 0.018v0.001zM4.981 8.535h4.071l0.559 1.365h-3.272l-1.357-1.365zM22.004 9.901h-0.93v0.007h-10.346l-0.559-1.364h13.181l-1.346 1.357zM24.34 11.081l1.419-2.49 1.433 2.475c-0.427 0.182-0.922 0.287-1.442 0.287-0.508 0-0.993-0.099-1.434-0.282l0.024 0.011zM29.038 9.446c-0.248 0.432-0.562 0.796-0.934 1.092l-0.008 0.006-0.008 0.006-1.434-2.474 2.845-0.008c-0.066 0.491-0.226 0.966-0.47 1.396l0.011-0.019-0.002 0.001z"></path>
</symbol>
<symbol id="icon-facebook" viewBox="0 0 32 32">
<path fill="#fdfdff" d="M18.425 10.801h1.462v-2.473c-0.63-0.069-1.36-0.109-2.099-0.109-0.011 0-0.022 0-0.034 0h0.002c-2.115 0-3.562 1.29-3.562 3.655v2.038h-2.387v2.769h2.388v7.094h2.862v-7.094h2.38l0.358-2.768h-2.738v-1.766c0-0.816 0.218-1.346 1.369-1.346z"></path>
<path fill="none" stroke="#fdfdff" stroke-width="0.8" stroke-miterlimit="4" stroke-linecap="butt" stroke-linejoin="miter"  d="M4.8 0.4h22.4c2.43 0 4.4 1.97 4.4 4.4v22.4c0 2.43-1.97 4.4-4.4 4.4h-22.4c-2.43 0-4.4-1.97-4.4-4.4v-22.4c0-2.43 1.97-4.4 4.4-4.4z"></path>
</symbol>
<symbol id="icon-heart" viewBox="0 0 32 32">
<path  stroke="#fdfdff" stroke-width="2.6667" stroke-miterlimit="4" stroke-linecap="round" stroke-linejoin="round" style="stroke: var(--color2, #fdfdff)" d="M27.787 6.147c-1.327-1.328-3.161-2.149-5.187-2.149s-3.859 0.821-5.187 2.149l-1.413 1.413-1.413-1.413c-1.327-1.327-3.161-2.148-5.187-2.148-4.051 0-7.335 3.284-7.335 7.335 0 2.026 0.821 3.859 2.148 5.187l11.787 11.787 11.787-11.787c1.328-1.327 2.149-3.161 2.149-5.187s-0.821-3.859-2.149-5.187l-0-0z"></path>
</symbol>
<symbol id="icon-instagram" viewBox="0 0 32 32">
<path fill="#fdfdff" style="fill: var(--color2, #fdfdff)" d="M19.992 11.114c-0.495 0-0.896 0.401-0.896 0.896s0.401 0.896 0.896 0.896v0c0.495 0 0.896-0.401 0.896-0.896s-0.401-0.896-0.896-0.896v0zM23.426 12.922c-0.016-0.656-0.141-1.277-0.357-1.854l0.013 0.039c-0.201-0.517-0.495-0.958-0.866-1.321l-0.001-0.001c-0.361-0.373-0.802-0.666-1.297-0.85l-0.024-0.008c-0.537-0.21-1.159-0.337-1.808-0.351l-0.006-0c-0.792-0.045-1.046-0.045-3.077-0.045s-2.285 0-3.076 0.045c-0.655 0.014-1.277 0.142-1.852 0.364l0.037-0.013c-0.518 0.194-0.959 0.487-1.321 0.858l-0.001 0.001c-0.374 0.361-0.667 0.803-0.851 1.297l-0.008 0.024c-0.209 0.537-0.337 1.159-0.35 1.809l-0 0.006c-0.045 0.792-0.045 1.046-0.045 3.076 0 2.032 0 2.285 0.045 3.077 0.013 0.62 0.131 1.234 0.35 1.814 0.182 0.5 0.476 0.952 0.859 1.322 0.362 0.372 0.803 0.664 1.297 0.85l0.025 0.008c0.537 0.209 1.159 0.337 1.808 0.351l0.006 0c0.792 0.045 1.045 0.045 3.076 0.045s2.285 0 3.077-0.045c0.655-0.014 1.277-0.142 1.852-0.364l-0.037 0.013c0.518-0.192 0.96-0.485 1.32-0.857l0.001-0.001c0.373-0.363 0.668-0.804 0.858-1.297l0.008-0.025c0.203-0.538 0.328-1.159 0.344-1.807l0-0.007c0-0.792 0.044-1.046 0.044-3.077s0-2.285-0.045-3.076zM22.082 18.985c-0.006 0.5-0.099 0.977-0.264 1.418l0.009-0.029c-0.126 0.337-0.317 0.624-0.559 0.858l-0.001 0.001c-0.236 0.241-0.523 0.431-0.842 0.554l-0.016 0.006c-0.412 0.155-0.889 0.248-1.386 0.254l-0.003 0c-0.746 0.038-1.023 0.045-2.986 0.045s-2.24 0-2.987-0.045c-0.024 0-0.052 0.001-0.079 0.001-0.49 0-0.96-0.082-1.399-0.234l0.030 0.009c-0.321-0.135-0.594-0.325-0.821-0.559l-0.001-0.001c-0.241-0.234-0.43-0.521-0.547-0.843l-0.005-0.016c-0.174-0.418-0.282-0.903-0.299-1.412l-0-0.007c0-0.747-0.045-1.023-0.045-2.987s0-2.24 0.045-2.986c0.004-0.51 0.099-0.997 0.271-1.447l-0.010 0.028c0.131-0.315 0.333-0.596 0.59-0.822 0.224-0.252 0.498-0.454 0.807-0.592l0.015-0.006c0.422-0.157 0.909-0.25 1.417-0.254h0.002c0.746 0 1.023-0.045 2.986-0.045s2.24 0 2.986 0.045c0.474 0.006 0.944 0.091 1.389 0.254 0.34 0.126 0.644 0.331 0.889 0.598 0.245 0.23 0.436 0.51 0.56 0.822 0.166 0.454 0.252 0.934 0.254 1.418 0.038 0.746 0.045 1.023 0.045 2.986s-0.007 2.24-0.045 2.987zM16.004 12.167c-2.112 0.005-3.822 1.717-3.822 3.83 0 2.115 1.715 3.83 3.83 3.83s3.829-1.714 3.83-3.829v-0c0-0.003 0-0.006 0-0.009 0-2.111-1.711-3.822-3.822-3.822-0.006 0-0.011 0-0.017 0h0.001zM16.004 18.484c-1.373 0-2.486-1.113-2.486-2.486s1.113-2.486 2.486-2.486v0c1.373 0 2.486 1.113 2.486 2.486s-1.113 2.486-2.486 2.486v0z"></path>
<path fill="none" stroke="#fdfdff" stroke-width="0.8" stroke-miterlimit="4" stroke-linecap="butt" stroke-linejoin="miter" style="stroke: var(--color2, #fdfdff)" d="M4.8 0.4h22.4c2.43 0 4.4 1.97 4.4 4.4v22.4c0 2.43-1.97 4.4-4.4 4.4h-22.4c-2.43 0-4.4-1.97-4.4-4.4v-22.4c0-2.43 1.97-4.4 4.4-4.4z"></path>
</symbol>
<symbol id="icon-search" viewBox="0 0 32 32">
<path d="M29.092 31.514l-6.85-6.86c-1.066 0.92-2.318 1.662-3.687 2.158l-0.083 0.026c-1.336 0.494-2.88 0.78-4.49 0.78-0.031 0-0.062-0-0.092-0l0.005 0c-3.878 0-7.162-1.346-9.854-4.044-2.694-2.698-4.040-5.954-4.040-9.764 0-3.812 1.346-7.066 4.040-9.764 2.692-2.698 5.96-4.046 9.8-4.046 3.806 0 7.046 1.348 9.72 4.046 2.676 2.698 4.014 5.952 4.014 9.764 0 1.546-0.252 3.040-0.754 4.478-0.557 1.551-1.323 2.891-2.282 4.069l0.020-0.025 6.958 6.862c0.298 0.261 0.485 0.641 0.485 1.066 0 0.014-0 0.028-0.001 0.042l0-0.002c-0.006 0.48-0.212 0.911-0.539 1.213l-0.001 0.001c-0.293 0.3-0.701 0.486-1.153 0.486-0.011 0-0.022-0-0.033-0l0.002 0c-0.009 0-0.020 0-0.031 0-0.452 0-0.86-0.186-1.153-0.486l-0-0zM13.84 24.382c2.908 0 5.386-1.034 7.432-3.1 2.046-2.068 3.070-4.56 3.070-7.472 0-2.914-1.024-5.404-3.070-7.472s-4.524-3.098-7.432-3.098c-2.944 0-5.448 1.032-7.512 3.1s-3.096 4.56-3.096 7.472c0 2.912 1.032 5.404 3.096 7.47 2.064 2.068 4.568 3.102 7.512 3.102z"></path>
</symbol>
<symbol id="icon-trash" viewBox="0 0 32 32">
<path fill="none"  stroke-width="2.6667" stroke-miterlimit="4" stroke-linecap="round" stroke-linejoin="round" d="M21.333 8v-1.067c0-1.493 0-2.24-0.291-2.811-0.261-0.504-0.661-0.905-1.151-1.158l-0.015-0.007c-0.571-0.291-1.317-0.291-2.811-0.291h-2.133c-1.493 0-2.24 0-2.811 0.291-0.504 0.261-0.905 0.661-1.158 1.15l-0.007 0.015c-0.291 0.571-0.291 1.317-0.291 2.811v1.067M13.333 15.333v6.667M18.667 15.333v6.667M4 8h24M25.333 8v14.933c0 2.24 0 3.36-0.436 4.216-0.391 0.756-0.992 1.357-1.726 1.738l-0.022 0.011c-0.856 0.436-1.976 0.436-4.216 0.436h-5.867c-2.24 0-3.36 0-4.216-0.436-0.756-0.391-1.357-0.992-1.737-1.726l-0.011-0.022c-0.436-0.856-0.436-1.976-0.436-4.216v-14.933"></path>
</symbol>
<symbol id="icon-close" viewBox="0 0 32 32">
<path stroke-width="2.6667" stroke-miterlimit="4" stroke-linecap="round" stroke-linejoin="round" d="M24 8l-16 16M8 8l16 16"></path>
</symbol>
<symbol id="icon-youtube" viewBox="0 0 32 32">
<path fill="#fdfdff" style="fill: var(--color2, #fdfdff)" d="M20.532 10.5c-0.748-0.044-2.288-0.088-4.62-0.088h-0.308c-2.244 0-3.74 0.044-4.488 0.132-1.012 0.088-1.716 0.352-2.112 0.704-0.352 0.308-0.616 0.88-0.704 1.628-0.044 0.484-0.088 1.496-0.088 3.036v0.22c0 1.452 0.044 2.464 0.132 2.948 0.132 0.704 0.352 1.232 0.792 1.54 0.44 0.352 1.188 0.572 2.244 0.66 0.748 0.044 2.288 0.088 4.62 0.088h0.308c2.244 0 3.74-0.044 4.488-0.132 1.012-0.088 1.716-0.352 2.112-0.704 0.352-0.308 0.616-0.88 0.704-1.628 0.044-0.484 0.088-1.496 0.088-3.036v-0.22c0-1.452-0.044-2.464-0.132-2.948-0.132-0.704-0.352-1.232-0.792-1.54-0.44-0.352-1.188-0.572-2.244-0.66zM18.816 15.912l-4.84 2.904v-5.808l4.84 2.904z"></path>
<path fill="none" stroke="#fdfdff" stroke-width="0.8" stroke-miterlimit="4" stroke-linecap="butt" stroke-linejoin="miter" style="stroke: var(--color2, #fdfdff)" d="M4.8 0.4h22.4c2.43 0 4.4 1.97 4.4 4.4v22.4c0 2.43-1.97 4.4-4.4 4.4h-22.4c-2.43 0-4.4-1.97-4.4-4.4v-22.4c0-2.43 1.97-4.4 4.4-4.4z"></path>
</symbol>
</defs>
</svg>
